# xmcd CD database file
#
# Track frame offsets:
#	150
#	21091
#	40316
#	61246
#
# Disc length: 1071 seconds
#
# Revision: 0
# Processed by: cddbd v1.5.1PL0 Copyright (c) Steve Scherf et al.
# Submitted via: CDex 1.51
#
DISCID=2b042d04
DTITLE=as - タイムカプセル
DYEAR=2005
DGENRE=JPop
TTITLE0=タイムカプセル
TTITLE1=通学バス
TTITLE2=タイムカプセル -Instrumental-
TTITLE3=通学バス -Instrumental-
EXTD=YEAR: 2005
EXTT0=
EXTT1=
EXTT2=
EXTT3=
PLAYORDER=
